<?xml version="1.0" encoding="UTF-8"?><svg id="a" xmlns="http://www.w3.org/2000/svg" viewBox="0 0 20 20"><defs><style>.b{fill:#ea0061;}.c{fill:#ea4061;}</style></defs><path class="b" d="m4.51,7.88c-1.32-.26-2.62-.65-3.86-1.18-.43,1.05-.65,2.17-.65,3.33,0,.83.12,1.64.34,2.42,1.43.66,2.91,1.14,4.41,1.42-.36-1.99-.44-4-.24-6Z"/><path class="b" d="m6.28.47c-2.14.63-3.94,2.13-5.02,4.14,1.15.47,2.35.84,3.58,1.09.25-1.8.74-3.55,1.44-5.23Z"/><path class="b" d="m.86,14.45c1.01,2.55,2.94,4.46,5.3,5.24-.47-1.25-.84-2.54-1.12-3.88-1.42-.28-2.82-.73-4.18-1.36Z"/><path class="c" d="m13.15,6.38c-.3-2.16-.91-4.27-1.82-6.26-.94-.16-1.99-.16-2.91,0-.91,1.99-1.52,4.1-1.82,6.26,2.18.34,4.37.34,6.55,0Z"/><path class="c" d="m9.91,16.07c-.85,0-1.7-.07-2.56-.2.31,1.38.72,2.72,1.25,4.01.84.16,1.79.16,2.61,0,.52-1.28.94-2.63,1.25-4.01-.85.13-1.7.2-2.56.2Z"/><path class="c" d="m6.87,8.03c-.19,2-.1,4.02.29,6.01,1.82.28,3.68.28,5.5,0,.39-1.98.48-4.01.29-6.01-1.01.15-2.03.25-3.04.25s-2.03-.09-3.04-.25Z"/><path class="c" d="m13.82,19.76c2.36-.78,4.29-2.68,5.3-5.24-1.36.63-2.76,1.08-4.18,1.36-.28,1.34-.65,2.63-1.12,3.88Z"/><path class="c" d="m18.37,4.79c-1.07-2.02-2.89-3.51-5.02-4.14.69,1.68,1.19,3.43,1.44,5.23,1.23-.25,2.44-.62,3.58-1.09Z"/><path class="c" d="m19.35,6.71c-1.24.52-2.54.92-3.86,1.18.19,2,.12,4.01-.24,6,1.51-.28,2.98-.76,4.41-1.42.22-.78.34-1.59.34-2.42,0-1.16-.22-2.28-.65-3.33Z"/></svg>