<?xml version="1.0" encoding="UTF-8"?><svg id="a" xmlns="http://www.w3.org/2000/svg" viewBox="0 0 20 20"><defs><style>.b{fill:#ea0061;}.c{fill:#ea4061;}</style></defs><path class="c" d="m19.62,7.11v8.65c0,1.23-1.01,2.23-2.25,2.23H2.63c-1.24,0-2.25-1-2.25-2.23V4.88h17c.29,0,.57.06.82.16.25.09.47.22.65.39.27.23.48.52.62.84.11.26.16.54.16.84Z"/><path class="b" d="m19.21,5.91c-.13-.21-.33-.39-.58-.54-.17-.11-.38-.19-.62-.25h-7.95l-.42-1.19c-.41-1.15-1.5-1.93-2.72-1.93H1.19c-.43,0-.79.35-.79.79v3.13h9.94,0s8.87-.01,8.87-.01Z"/></svg>