<?xml version="1.0" encoding="UTF-8"?><svg id="a" xmlns="http://www.w3.org/2000/svg" viewBox="0 0 20 20"><path d="m15.43,16.43H4.57c-.3,0-.54-.3-.54-.67s.24-.67.54-.67h10.86c.3,0,.54.3.54.67s-.24.67-.54.67Z"/><path d="m17.07,20H2.93C1.31,20,0,18.63,0,16.94v-8.26C0,7.73.43,6.82,1.16,6.24L8.23.62c1.04-.83,2.5-.83,3.54,0l7.07,5.62c.72.57,1.16,1.49,1.16,2.44v8.26c0,1.69-1.31,3.06-2.93,3.06ZM10,1.25c-.35,0-.7.12-.99.35L1.93,7.22c-.43.34-.68.89-.68,1.46v8.26c0,1,.75,1.81,1.68,1.81h14.15c.92,0,1.68-.81,1.68-1.81v-8.26c0-.57-.26-1.12-.68-1.46L10.99,1.6c-.3-.24-.64-.35-.99-.35Z"/></svg>