<?xml version="1.0" encoding="UTF-8"?><svg id="a" xmlns="http://www.w3.org/2000/svg" viewBox="0 0 20 20"><defs><style>.b{fill:#ea0061;}</style></defs><path class="b" d="m19.99,8.37c0-.58-.37-1.08-.91-1.23l-1.9-.52c-.11-.03-.2-.11-.26-.22-.15-.32-.33-.63-.52-.93-.07-.1-.09-.22-.06-.34l.48-1.97c.14-.56-.1-1.15-.58-1.43L13.54.16c-.49-.28-1.09-.19-1.48.22l-1.37,1.47c-.08.08-.19.13-.31.12-.14,0-.27,0-.4,0-.14,0-.29,0-.44.02-.12,0-.24-.04-.32-.13l-1.38-1.44c-.39-.41-1-.5-1.48-.21l-2.68,1.6c-.48.29-.72.87-.57,1.43l.5,1.97c.03.11.01.24-.05.34-.19.29-.35.59-.5.9-.05.11-.15.19-.26.22l-1.9.53c-.53.15-.9.66-.9,1.23v3.21c.01.58.38,1.08.92,1.23l1.9.52c.11.03.2.11.26.22.15.32.33.63.52.93.07.1.09.22.06.34l-.48,1.97c-.14.56.1,1.15.58,1.43l2.71,1.57c.48.28,1.08.19,1.47-.22l1.37-1.47c.08-.08.19-.13.31-.12.14,0,.27,0,.4,0,.15,0,.29,0,.44-.02.12,0,.24.04.32.13l1.38,1.44c.39.41,1,.5,1.48.21l2.68-1.6c.48-.29.72-.87.57-1.43l-.5-1.97c-.03-.11-.01-.24.05-.34.19-.29.35-.59.5-.9.05-.11.15-.19.26-.22l1.9-.53c.53-.15.9-.66.9-1.23v-3.21Zm-9.94,6.3c-2.61,0-4.73-2.12-4.73-4.73s2.12-4.72,4.73-4.72,4.72,2.12,4.72,4.72-2.12,4.73-4.72,4.73Z"/><path class="b" d="m10.06,6.89c-1.69,0-3.06,1.37-3.06,3.05s1.37,3.06,3.06,3.06,3.05-1.37,3.05-3.06-1.37-3.05-3.05-3.05Z"/></svg>