<?xml version="1.0" encoding="UTF-8"?><svg id="a" xmlns="http://www.w3.org/2000/svg" viewBox="0 0 20 20"><path d="m19.99,8.37v3.21c.01.57-.36,1.08-.9,1.23l-1.9.53c-.11.03-.21.11-.26.22-.15.31-.31.61-.5.9-.07.1-.09.23-.06.34l.51,1.97c.14.56-.09,1.14-.57,1.43l-2.68,1.6c-.48.29-1.09.2-1.48-.21l-1.38-1.45c-.08-.09-.2-.13-.32-.12-.15,0-.29.01-.44.01-.13,0-.27,0-.4,0-.12,0-.24.04-.32.13l-1.37,1.46c-.39.41-.99.5-1.47.22l-2.7-1.57c-.48-.28-.72-.87-.59-1.42l.49-1.97c.03-.12,0-.24-.06-.34-.19-.3-.37-.61-.53-.93-.05-.11-.15-.19-.26-.22l-1.9-.52c-.53-.15-.91-.65-.91-1.22v-3.21c-.01-.57.36-1.08.9-1.23l1.9-.53c.11-.03.21-.11.26-.22.15-.31.31-.61.5-.9.07-.1.09-.23.06-.34l-.51-1.97c-.14-.56.09-1.14.57-1.43L6.36.2C6.84-.09,7.45,0,7.84.41l1.38,1.45c.08.08.2.13.32.12.15,0,.29-.01.44-.01.13,0,.27,0,.4,0,.12,0,.24-.04.32-.13l1.37-1.46c.39-.41.99-.5,1.47-.22l2.7,1.57c.48.28.72.87.59,1.42l-.49,1.97c-.03.12,0,.24.06.34.19.3.37.61.53.93.05.11.15.19.26.22l1.9.52c.53.15.91.65.91,1.22Zm-4.44,6.34c0-.25.07-.5.21-.72.16-.26.31-.52.45-.8.16-.33.44-.57.78-.67l1.9-.53c.18-.05.3-.22.3-.4v-3.21c0-.19-.13-.35-.31-.4l-1.9-.52c-.34-.09-.62-.33-.78-.66-.14-.29-.3-.57-.47-.83-.2-.3-.26-.68-.18-1.03l.49-1.97c.04-.18-.03-.38-.19-.47l-2.7-1.57c-.16-.09-.36-.06-.49.07l-1.37,1.46c-.24.26-.59.4-.95.38-.12,0-.24,0-.36,0-.13,0-.26,0-.39.01-.36.02-.7-.11-.95-.37l-1.38-1.45c-.13-.13-.33-.16-.49-.07l-2.68,1.6c-.16.09-.24.29-.19.47l.51,1.97c.09.35.03.73-.17,1.04-.16.25-.31.52-.44.8-.16.33-.44.57-.78.67l-1.9.53c-.18.05-.3.22-.3.4v3.21c0,.19.13.35.31.4l1.9.52c.34.09.62.33.78.66.14.29.3.57.47.83.2.3.26.68.18,1.03l-.49,1.97c-.05.18.03.38.19.47l2.7,1.57c.16.09.36.06.49-.07l1.37-1.46c.24-.26.59-.4.95-.38.12,0,.24,0,.36,0,.13,0,.26,0,.39-.01.36-.02.7.11.95.37l1.38,1.45c.13.13.33.16.49.07l2.68-1.6c.16-.09.24-.29.19-.47l-.51-1.97c-.03-.11-.04-.21-.04-.32Z"/><path d="m13.63,9.99c0,2.08-1.62,3.77-3.62,3.78s-3.63-1.68-3.64-3.76,1.62-3.77,3.62-3.78,3.63,1.68,3.64,3.76Zm-6.44.02c0,1.61,1.27,2.91,2.82,2.91s2.81-1.32,2.8-2.92-1.27-2.91-2.82-2.91-2.8,1.32-2.8,2.92Z"/></svg>