<?xml version="1.0" encoding="UTF-8"?><svg id="a" xmlns="http://www.w3.org/2000/svg" viewBox="0 0 20 20"><defs><style>.b{fill:#ea0061;}.c{fill:#ea4061;}</style></defs><g><path class="c" d="m14.51,7.33h2.67V1.78C17.18.8,16.37.01,15.38.01H4.6c-.17,0-.33.03-.48.07-.01,0-.02.01-.03.01h0s-.01,0-.01,0c-.05.01-.09.03-.14.05-.03,0-.06.02-.09.03h0s0,.01,0,.01c-.1.05-.19.1-.28.16-.03.01-.06.03-.09.06-.06.05-.11.09-.16.15-.06.04-.11.1-.16.17-.03.05-.07.1-.1.16,0,.02-.01.04-.03.06-.11.17-.17.36-.2.56v14.46h0c.01.06.01.1.03.15.01.04.03.08.04.13,0,.01,0,.03.01.04,0,.01,0,.02.02.04.01.01.01.02.01.02.02.06.05.12.09.18.03.07.07.14.12.2t.02.02s.01.01.01.01c.01.01.02.03.03.04.01.02.02.03.04.05t.01.02s.06.06.1.09c.05.06.11.11.18.16,0,0,0,.01.02.01.15.12.32.2.5.26.1.03.2.05.3.06.01.01.02.01.04.01.07,0,.14,0,.21,0h10.78c.99,0,1.8-.79,1.8-1.77v-5.31h-2.72l1.04,1.16c.18.2.18.52,0,.72l-.58.65c-.18.2-.47.2-.65,0l-2.39-2.66-.63-.7c-.33-.37-.33-.97,0-1.35l.63-.69,2.34-2.61c.21-.23.54-.23.75,0l.48.54c.21.23.21.61,0,.84l-.94,1.04Z"/><path class="c" d="m3.02,16.53c.04.08.09.15.14.22t-.02-.02s-.09-.1-.13-.16h0c-.04-.07-.07-.12-.08-.19-.01-.01-.01-.03-.02-.04,0-.01,0-.02-.02-.03,0-.01-.01-.02-.01-.03-.01-.03-.02-.06-.02-.09-.03-.07-.05-.14-.06-.21h.02s.01-.01.01-.01t.01.02s0,.1.03.15c.01.03.01.06.03.1,0,.02,0,.03,0,.04.03.09.07.17.11.25Z"/><path class="c" d="m3.35,16.96c.06.06.13.11.2.17-.01,0-.01-.01-.02-.01-.04-.03-.09-.04-.12-.07-.06-.05-.1-.12-.16-.18t-.01-.02s-.03-.03-.04-.05c.05.06.1.11.15.16Z"/><path class="c" d="m17.2,10.39v5.31c0,.98-.82,1.78-1.82,1.78H4.6c-.07,0-.14-.01-.21-.02-.02,0-.03,0-.04-.01-.09-.01-.17-.03-.25-.06h-.05c-.09-.03-.18-.08-.26-.13.24.12.52.19.81.19h10.78c.98,0,1.79-.78,1.79-1.75v-5.31h.03Z"/><path class="c" d="m17.2,1.78v5.55h-.03V1.78c0-.97-.81-1.75-1.79-1.75H4.6c-.15,0-.31.02-.46.06-.01,0-.02,0-.03,0h-.03s-.09.03-.14.05c-.03,0-.06.02-.09.04h0c-.1.05-.19.1-.28.16-.09.07-.17.14-.25.21-.09.1-.18.21-.26.33,0,.02-.01.04-.03.06-.09.17-.16.36-.19.56h-.03c.02-.1.06-.19.09-.28,0,0,0-.01,0-.02.19-.54.62-.97,1.19-1.14h.01c.17-.05.34-.07.51-.07h10.78c1,0,1.82.8,1.82,1.78Z"/></g><g><path class="b" d="m10.13,3.41v15.71c0,.63-.67,1.05-1.26.78l-4.72-2.16c-.81-.37-1.32-1.16-1.32-2.03V1.51c.11-.68.61-1.23,1.27-1.42l5.53,2.53c.31.14.51.45.51.78Z"/><path class="b" d="m9.99,2.94c-.04-.07-.1-.13-.16-.19s-.13-.11-.21-.14L4.14.09h-.02s-.03-.02-.03-.02h-.01c-.57.17-.99.6-1.19,1.14,0,0,0,.01,0,.02-.03.09-.07.17-.09.27v14.2c0,.09.01.18.02.27h0c.01.06.01.1.03.15,0,.02,0,.05.01.07,0,.03.01.06.02.09,0,0,.01.02.01.03.17.63.62,1.15,1.24,1.44l4.73,2.17c.06.02.13.03.19.04-.06-.02-.12-.04-.18-.07l-4.73-2.16c-.51-.24-.9-.65-1.12-1.15,0,0,0-.01,0-.02h0c-.03-.08-.06-.15-.08-.22,0,0,0,0-.01-.02,0-.01-.01-.03-.01-.05,0-.01,0-.02,0-.04-.05-.17-.07-.35-.07-.54V1.51c.03-.2.1-.39.19-.56.02-.02.03-.04.03-.06.08-.12.17-.23.26-.33.08-.07.16-.14.25-.21.09-.06.18-.11.28-.16h0s.06-.03.09-.04c.05-.02.09-.04.14-.05h.01l5.52,2.53c.3.14.5.45.5.78v15.71c0,.29-.15.55-.39.71,0,.01-.02.01-.03.02-.07.03-.14.07-.21.09-.08.03-.16.04-.24.04-.06,0-.13-.01-.19-.02.06,0,.13.04.19.04.12,0,.23-.02.34-.08.05-.01.09-.03.14-.06.11-.06.2-.15.25-.25.04-.04.06-.08.08-.13.01-.01.02-.02.02-.03.01-.05.03-.1.04-.15.02-.06.03-.12.03-.18V3.41c0-.17-.05-.34-.15-.47Z"/></g></svg>