<?xml version="1.0" encoding="UTF-8"?><svg id="a" xmlns="http://www.w3.org/2000/svg" viewBox="0 0 20 20"><defs><style>.b{fill:#ff2a6c;}</style></defs><path class="b" d="m10,0v17.53c-.26,0-.51.06-.69.17l-2.84,1.69c-1.57.94-2.48.59-2.88.29-.4-.29-1.01-1.05-.59-2.85l.67-2.93c.09-.39-.09-1-.36-1.27l-2.36-2.38c-.81-.81-1.12-1.69-.87-2.48.25-.78,1.01-1.32,2.14-1.51l3.03-.51c.35-.05.82-.41.98-.73l1.67-3.37c.53-1.06,1.27-1.65,2.1-1.65Z"/><path class="b" d="m16.69,12.63c-.28.27-.45.88-.36,1.27l.67,2.93c.41,1.8-.19,2.56-.59,2.85-.21.15-.54.32-1.03.32s-1.08-.15-1.86-.61l-2.84-1.7c-.18-.11-.43-.16-.68-.16V0c.82,0,1.56.59,2.09,1.65l1.67,3.37c.16.33.63.67.98.73l3.03.51c1.14.19,1.9.73,2.15,1.52.24.78-.07,1.66-.88,2.47l-2.35,2.38Z"/></svg>