<?xml version="1.0" encoding="UTF-8"?><svg id="a" xmlns="http://www.w3.org/2000/svg" viewBox="0 0 20 20"><path d="m15.38,20c-.47,0-1.08-.15-1.85-.61l-2.84-1.7c-.36-.21-1.01-.21-1.37,0l-2.84,1.69c-1.57.94-2.48.59-2.88.29-.4-.29-1.01-1.06-.6-2.85l.67-2.94c.09-.39-.09-.99-.36-1.27l-2.36-2.37c-.81-.82-1.12-1.7-.87-2.48.25-.78,1.01-1.32,2.14-1.51l3.03-.51c.35-.06.82-.41.97-.73,0,0,0,0,0,0l1.67-3.37c.53-1.06,1.28-1.65,2.1-1.65h0c.82,0,1.56.59,2.09,1.65l1.67,3.37s0,0,0,0c.16.32.63.67.98.73l3.03.51c1.13.19,1.89.73,2.14,1.51.25.78-.06,1.66-.88,2.48l-2.35,2.37c-.27.28-.45.88-.36,1.27l.67,2.94c.41,1.8-.19,2.56-.59,2.85-.2.15-.54.32-1.03.32Zm-5.38-3.47c.43,0,.86.1,1.19.3l2.84,1.69c.78.47,1.45.6,1.79.35.33-.25.41-.92.21-1.81l-.67-2.94s0,0,0,0c-.16-.73.11-1.67.63-2.2l2.36-2.37c.53-.53.76-1.06.63-1.46-.13-.4-.62-.7-1.36-.83l-3.03-.51c-.68-.11-1.41-.66-1.71-1.28l-1.67-3.37s0,0,0,0c-.34-.69-.78-1.09-1.2-1.09h0c-.42,0-.86.4-1.21,1.09l-1.67,3.37c-.29.6-1.04,1.16-1.7,1.28l-3.03.51c-.73.12-1.22.42-1.35.82-.13.4.1.94.63,1.46l2.36,2.37c.52.52.79,1.47.63,2.2,0,0,0,0,0,0l-.67,2.94c-.2.89-.12,1.56.21,1.81.34.25,1,.12,1.78-.35l2.84-1.7s0,0,0,0c.34-.2.77-.3,1.19-.3Z"/></svg>