<?xml version="1.0" encoding="UTF-8"?><svg id="a" xmlns="http://www.w3.org/2000/svg" viewBox="0 0 20 20"><g id="b"><path d="m14.58.97c-.39-.3-.83-.53-1.3-.7C12.79.09,12.27,0,11.72,0,9.11,0,6.99,2.12,6.99,4.73s2.12,4.73,4.73,4.73c.55,0,1.08-.09,1.57-.27.47-.16.91-.4,1.3-.7,1.13-.86,1.87-2.23,1.87-3.76s-.73-2.9-1.87-3.76Zm-1.3,7.19c-.4.18-.84.3-1.3.33-.09,0-.18,0-.27,0-2.08,0-3.77-1.69-3.77-3.77s1.69-3.77,3.77-3.77c.09,0,.18,0,.27,0,.46.03.9.15,1.3.33,1.3.6,2.21,1.91,2.21,3.43s-.91,2.84-2.21,3.43Z"/></g><path d="m17.87,11.81s-.08-.08-.12-.12c-.7-.63-1.67-.96-2.88-.96h-5.79c-1.34,0-2.34.35-3.05,1.07-.65.65-1.04,1.58-1.22,2.92-.15,1.13-.15,2.42-.14,3.78,0,.33,0,.68,0,1.02v.48h14.59v-.48c0-.16,0-.32,0-.48,0-.16,0-.32,0-.48.02-2.73.04-5.31-1.4-6.76Zm-12.24,7.24c0-.19,0-.37,0-.55,0-1.33-.02-2.59.13-3.65.15-1.12.45-1.87.95-2.37.52-.53,1.3-.79,2.37-.79h5.79c1.04,0,1.8.26,2.33.79,1.16,1.17,1.14,3.55,1.12,6.08,0,.16,0,.32,0,.48H5.63Z"/><g id="c"><path d="m6.41,1.18h0c0-.38-.42-.61-.74-.4-1.28.85-2.13,2.3-2.13,3.95s.85,3.1,2.13,3.95c.32.21.74-.02.74-.4h0c0-.16-.08-.31-.21-.4-1.03-.67-1.71-1.84-1.71-3.15s.68-2.48,1.71-3.15c.13-.09.21-.24.21-.4Z"/></g><path d="m2.76,12.48c.26-.26.58-.45.96-.58.19-.07.32-.25.32-.45h0c0-.33-.32-.56-.63-.45-.52.18-.97.45-1.33.82-.65.65-1.04,1.58-1.22,2.92-.15,1.13-.15,2.42-.14,3.78,0,.33,0,.68,0,1.02v.48h2.16v-.96h-1.21c0-.19,0-.37,0-.55,0-1.33-.02-2.59.13-3.65.15-1.12.45-1.87.95-2.37Z"/></svg>