<?xml version="1.0" encoding="UTF-8"?><svg id="a" xmlns="http://www.w3.org/2000/svg" viewBox="0 0 20 20"><defs><style>.b{fill:#fff;}.c{fill:#ff2a6c;}</style></defs><path class="b" d="m6,18.5c0,.33.01.68.01,1.02v.48h-.01v-1.5Z"/><path class="b" d="m9.9.27c-.06-.02-.12-.05-.18-.06.38-.14.79-.21,1.21-.21.2,0,.4.02.59.05-.14.02-.29.05-.43.1-.1.03-.2.06-.29.1-.12.05-.23.1-.34.15-.05.02-.09.05-.13.08-.16.08-.31.18-.46.28.14-.11.29-.2.45-.29-.14-.08-.28-.14-.42-.2Z"/><g><path class="c" d="m4.95,10.73c-1.16,0-2.03.35-2.65,1.07-.56.66-.89,1.58-1.05,2.92-.14,1.13-.13,2.42-.12,3.78,0,.33.01.68.01,1.02v.48h2.98v-.48c0-.34,0-.7-.01-1.03-.01-1.37-.01-2.66.12-3.8.16-1.35.5-2.28,1.06-2.94.48-.56.59-.59,1.36-1.02h-1.7Z"/><path class="c" d="m8.54,9.46c.4,0,.52-.01.63-.01-1.86-.61-3.02-2.61-3.02-4.72S7.66.62,9.52.02c-.58-.02-.57-.02-.98-.02-2.26,0-4.1,2.12-4.1,4.73s1.84,4.73,4.1,4.73Z"/><path class="c" d="m9.02,1.62c-.08.1-.15.21-.22.32s-.14.23-.2.35c-.07.12-.12.24-.18.37-.1.25-.19.51-.26.78-.11.41-.16.84-.16,1.29s.05.88.16,1.29c.04.13.08.27.12.4.04.11.08.22.12.33,0,.04.02.07.04.1.05.11.1.21.16.32.06.12.13.23.2.34.07.14.17.27.27.39.06.08.13.16.2.24.16.18.34.34.52.49.03.02.05.04.08.07.09.06.18.12.27.18.05.04.11.08.17.11.08.05.16.09.24.12.08.04.17.07.25.1.09.04.19.07.29.1.14.05.29.08.43.1.19.03.38.05.58.05.48,0,.93-.1,1.36-.27.41-.17.78-.4,1.12-.7.98-.86,1.62-2.23,1.62-3.76s-.64-2.9-1.62-3.76c-.34-.3-.71-.54-1.12-.7-.43-.18-.88-.27-1.36-.27-.2,0-.39.02-.58.05-.14.02-.29.05-.43.1-.1.03-.2.06-.29.1-.12.05-.23.1-.34.15-.04.02-.09.04-.14.07-.16.09-.31.18-.45.29-.03.02-.05.04-.08.07-.18.15-.36.31-.52.49-.09.1-.17.2-.25.3Z"/><path class="c" d="m17.44,11.81s-.07-.08-.11-.12c-.61-.63-1.44-.96-2.5-.96h-5.75c-.8.12-1.43.46-1.91,1.02-.42.49-.72,1.14-.9,2-.06.29-.11.6-.15.94-.01.01-.01.02-.01.03-.07.62-.11,1.29-.11,1.99-.01.58,0,1.18,0,1.79v1.5h12.64v-.48c0-.16,0-.32.01-.48v-.47c.02-2.73.03-5.31-1.21-6.76Z"/></g></svg>