<?xml version="1.0" encoding="UTF-8"?>
<svg id="Icons" xmlns="http://www.w3.org/2000/svg" viewBox="0 0 20 20">
<defs><style>.cls-1{fill:#222;fill-rule:evenodd;}</style></defs>
<path class="cls-1" d="M11.98,.54c.09,.17,.11,.39,.15,.82,.08,.82,.12,1.23,.3,1.46,.22,.29,.57,.43,.93,.38,.28-.04,.6-.3,1.24-.82,.34-.28,.51-.41,.69-.47,.23-.07,.48-.06,.7,.04,.17,.08,.33,.23,.64,.54l.89,.89c.31,.31,.46,.46,.54,.64,.1,.22,.11,.47,.03,.7-.06,.18-.2,.35-.47,.69-.52,.64-.78,.96-.82,1.24-.05,.36,.1,.71,.38,.93,.23,.17,.64,.21,1.46,.29,.43,.04,.65,.07,.82,.15,.22,.11,.38,.3,.47,.52,.07,.18,.07,.4,.07,.83v1.26c0,.44,0,.65-.07,.83-.09,.23-.26,.41-.47,.52-.17,.09-.39,.11-.82,.15h0c-.82,.08-1.23,.12-1.46,.29-.29,.22-.43,.57-.38,.93,.04,.28,.3,.6,.82,1.24,.28,.34,.41,.51,.47,.69,.07,.23,.06,.48-.03,.7-.08,.17-.23,.33-.54,.64l-.89,.89c-.31,.31-.46,.46-.64,.54-.22,.1-.47,.11-.7,.03-.18-.06-.35-.2-.69-.47h0c-.64-.52-.96-.78-1.24-.82-.36-.05-.71,.1-.93,.38-.17,.23-.21,.64-.29,1.46-.04,.43-.07,.65-.15,.82-.11,.22-.3,.38-.52,.47-.18,.07-.4,.07-.83,.07h-1.26c-.44,0-.65,0-.83-.07-.23-.09-.41-.26-.52-.47-.09-.17-.11-.39-.15-.82-.08-.82-.12-1.23-.29-1.46-.22-.29-.57-.43-.93-.38-.28,.04-.6,.3-1.24,.82h0c-.34,.28-.51,.41-.69,.47-.23,.07-.48,.06-.7-.03-.17-.08-.33-.23-.64-.54l-.89-.89c-.31-.31-.46-.46-.54-.64-.1-.22-.11-.47-.04-.7,.06-.18,.2-.35,.47-.69,.52-.64,.78-.96,.82-1.24,.05-.36-.1-.71-.38-.93-.23-.17-.64-.21-1.46-.3-.43-.04-.65-.06-.82-.15-.22-.11-.38-.3-.47-.52-.07-.18-.07-.4-.07-.83v-1.26c0-.44,0-.65,.07-.83,.09-.22,.26-.41,.47-.52,.17-.09,.39-.11,.82-.15h0c.82-.08,1.23-.12,1.46-.3,.29-.22,.43-.57,.38-.93-.04-.28-.3-.6-.82-1.24-.28-.34-.41-.51-.47-.69-.07-.23-.06-.48,.03-.7,.08-.17,.23-.33,.54-.64l.89-.89h0c.31-.31,.46-.46,.64-.54,.22-.1,.47-.11,.7-.04,.18,.06,.35,.2,.69,.47,.64,.52,.96,.78,1.24,.82,.36,.05,.71-.1,.93-.38,.17-.23,.21-.64,.29-1.46,.04-.43,.07-.65,.15-.82,.11-.22,.3-.38,.52-.47,.18-.07,.39-.07,.83-.07h1.26c.44,0,.65,0,.83,.07,.23,.09,.41,.26,.52,.47Zm-1.98,13.46c2.21,0,4-1.79,4-4s-1.79-4-4-4-4,1.79-4,4,1.79,4,4,4Z"/></svg>