<?xml version="1.0" encoding="UTF-8"?><svg id="b" xmlns="http://www.w3.org/2000/svg" viewBox="0 0 308.72 49.16"><defs><style>.d{fill:#ec429a;}.e{fill:#f58428;}</style></defs><g id="c"><path class="d" d="m49.54,40.48v-3.69c3.53,0,6.95.02,10.37,0,4.16-.03,6.35-1.37,6.44-3.87.09-2.58-2.26-4.1-6.53-4.14-3.4-.03-6.8,0-10.23,0v-3.61c4.64,0,9.06.03,13.47,0,3.97-.03,6.28-1.57,6.23-4.06-.05-2.47-2.36-3.94-6.38-3.97-5.79-.03-11.58-.04-17.36,0-4.64.03-6.48,1.45-6.51,5.08-.05,7.1-.05,14.2,0,21.3.02,3.49,1.79,4.94,6.24,5.01,5.91.09,11.82.08,17.73,0,4.08-.05,6.3-1.57,6.29-4.05-.02-2.5-2.21-3.92-6.34-3.97-4.41-.05-8.82-.01-13.41-.01Z"/><path class="d" d="m124.2,25.17c4.78,0,9.19.03,13.61,0,3.95-.03,6.27-1.6,6.2-4.09-.07-2.38-2.32-3.91-6.04-3.94-6.03-.05-12.07-.05-18.1,0-4.18.04-6.07,1.51-6.1,4.8-.07,7.2-.06,14.39,0,21.59.02,3.47,1.81,4.92,6.27,4.99,5.91.09,11.82.08,17.73,0,4.07-.05,6.29-1.58,6.26-4.08-.03-2.5-2.21-3.9-6.37-3.95-4.41-.05-8.82-.01-13.39-.01v-3.69c3.57,0,6.99.02,10.41,0,4.15-.03,6.34-1.39,6.41-3.89.07-2.57-2.29-4.08-6.56-4.12-3.4-.03-6.8,0-10.31,0,0-1.36,0-2.29,0-3.61Z"/><path class="d" d="m72.05,28.46c.08,1.38.05,2.22.18,3.04,1.18,7.88,5.61,13.48,13.24,16.25,7.47,2.71,14.63,1.56,20.65-3.65,1.31-1.13,2.2-3.55,2-5.24-.15-1.33-2.12-3.2-3.55-3.47-1.63-.31-3.79.55-5.32,1.51-5.04,3.16-10.65,2.78-14.34-1.28-3.45-3.8-3.37-9.65.17-13.38,3.65-3.84,9.39-4.28,14.05-1.07,3.57,2.45,6.49,2.44,8.41-.02,2.01-2.58,1.19-5.64-2.46-8.17-6.66-4.62-13.91-5.41-21.27-1.99-7.65,3.56-11.51,9.75-11.78,17.46Z"/><path class="d" d="m249.74,19.39c4.52,0,8.81.02,13.1,0,4.26-.02,6.65-1.9,6.59-5.1-.06-3.06-2.4-4.9-6.43-4.92-5.67-.04-11.34-.03-17.01,0-4.98.02-6.71,1.65-6.74,6.42-.04,8.75-.03,17.5,0,26.25.02,4.26,1.84,6.45,5.18,6.4,3.3-.05,5.05-2.27,5.11-6.57.04-2.57,0-5.14,0-7.95,3.99,0,7.3.03,10.61,0,4-.05,6.35-1.92,6.36-4.96.01-3.04-2.37-4.97-6.36-5.03-3.41-.06-6.83-.01-10.42-.01,0-1.6,0-2.76,0-4.5Z"/><path class="d" d="m289.83,29.16c-3.26-3.48-6.23-6.73-9.31-9.92-2.24-2.31-5.13-2.73-7.66-1.26-2.31,1.35-2.67,3.67-.72,5.88,2.23,2.52,4.41,5.11,6.96,7.42,4.01,3.63,6.38,7.48,5.64,12.48-.43,2.89,1.91,4.62,5.02,4.65,3.24.04,5.12-1.7,5.2-4.83.02-.86.12-1.74-.02-2.59-.42-2.54.69-4.58,2.72-6.57,3.36-3.3,6.51-6.74,9.54-10.24.9-1.04,1.83-2.62,1.43-3.64-.49-1.26-2.18-2.87-3.66-3.09-1.65-.25-4.24.5-5.36,1.51-3.42,3.1-6.34,6.53-9.78,10.18Z"/><path class="d" d="m195.78,25.16c0,6.7-.05,12.93.03,19.16.03,2.47,1.75,3.95,5,4.09,2.9.12,4.99-1.45,5.25-3.92.14-1.33.05-2.68.05-4.03,0-5.05,0-10.09,0-15.3,2.71,0,4.91.04,7.11,0,3.19-.07,5.07-1.42,5.38-3.86.28-2.22-2.11-4.1-5.39-4.14-8.25-.08-16.5-.09-24.75,0-3.13.04-5.04,1.48-5.2,3.98-.14,2.16,2.08,3.86,5.18,3.99,2.3.1,4.62.02,7.35.02Z"/><path class="d" d="m222.38,32.71c0,3.65-.03,7.29.01,10.94.04,3.03,1.78,4.68,4.9,4.77,3.26.1,5.38-1.66,5.4-4.72.06-7.29.06-14.59,0-21.88-.03-2.84-2.14-4.66-5.14-4.68-3.02-.02-5.1,1.79-5.15,4.62-.06,3.65-.01,7.29-.02,10.94Z"/><path class="d" d="m27.6,31.38c1.16,1.78,2.27,3.49,3.39,5.19,3.09,4.68,3.28,8.04.59,10.57-2.75,2.58-5.69,1.47-8.87-3.35-1.28-1.94-2.77-3.73-3.79-5.84-1.9-3.96-4.64-4.69-8.64-3.38,0,2.48.06,5.16-.01,7.84-.1,3.55-1.71,5.63-4.74,5.96-2.89.32-5.35-1.93-5.4-5.62C-.04,30.94-.04,19.13.12,7.33.18,3.42,2.4,1.42,5.74,1.38c4.43-.05,8.86-.06,13.29,0,6.25.09,10.94,3.28,13.36,10.12,2.42,6.85,1.02,12.95-3.39,18.17-.42.5-.83,1.02-1.39,1.71ZM10.62,13.48c0,3.16,0,5.67,0,8.4,3.23,0,6.24.44,9.06-.19,1.34-.3,3.25-2.68,3.24-4.1-.01-1.38-2.01-3.62-3.38-3.92-2.83-.61-5.82-.18-8.92-.18Z"/><path class="d" d="m167.73,17.01c-4.3-.2-8.63-.1-12.94-.03-3.36.05-5.18,1.52-5.51,4.1-.06.48-.03.96-.03,1.44,0,6.72-.01,13.45,0,20.17,0,3.68,1.7,5.5,5.08,5.56,3.47.06,5.2-1.71,5.24-5.38.01-.85,0-1.69,0-2.9,2.87,0,5.21.05,7.54,0,7.93-.19,14.31-5.16,14.5-11.25.19-6.02-6.01-11.35-13.88-11.71Zm-.46,14.75c-2.21.55-4.82.14-7.6.14v-6.81c2.66,0,5.46-.42,7.87.15,1.53.36,3.48,2.21,3.43,3.35-.04,1.13-2.11,2.78-3.71,3.18Z"/><circle class="e" cx="227.06" cy="6.67" r="6.67"/></g></svg>